<svg width="115" height="28" viewBox="0 0 115 28" fill="none" xmlns="http://www.w3.org/2000/svg">
<path d="M13.8849 11.3622H11.2287C11.1529 10.9266 11.0133 10.5407 10.8097 10.2045C10.6061 9.86364 10.3527 9.57481 10.0497 9.33807C9.74669 9.10133 9.40104 8.92377 9.01278 8.8054C8.62926 8.68229 8.21496 8.62074 7.76989 8.62074C6.97917 8.62074 6.27841 8.8196 5.66761 9.21733C5.05682 9.61032 4.5786 10.188 4.23295 10.9503C3.88731 11.7079 3.71449 12.6335 3.71449 13.7273C3.71449 14.84 3.88731 15.7775 4.23295 16.5398C4.58333 17.2973 5.06155 17.8703 5.66761 18.2585C6.27841 18.642 6.9768 18.8338 7.76278 18.8338C8.19839 18.8338 8.60559 18.777 8.98438 18.6634C9.3679 18.545 9.71117 18.3722 10.0142 18.1449C10.322 17.9176 10.58 17.6383 10.7884 17.3068C11.0014 16.9754 11.1482 16.5966 11.2287 16.1705L13.8849 16.1847C13.7855 16.8759 13.5701 17.5246 13.2386 18.1307C12.9119 18.7367 12.4834 19.2718 11.9531 19.7358C11.4228 20.1951 10.8026 20.5549 10.0923 20.8153C9.3821 21.071 8.59375 21.1989 7.72727 21.1989C6.44886 21.1989 5.30777 20.9029 4.30398 20.3111C3.30019 19.7192 2.50947 18.8646 1.93182 17.7472C1.35417 16.6297 1.06534 15.2898 1.06534 13.7273C1.06534 12.16 1.35653 10.8201 1.93892 9.70739C2.52131 8.58996 3.31439 7.73532 4.31818 7.14347C5.32197 6.55161 6.45833 6.25568 7.72727 6.25568C8.53693 6.25568 9.28977 6.36932 9.9858 6.59659C10.6818 6.82386 11.3021 7.15767 11.8466 7.59801C12.3911 8.03362 12.8385 8.56866 13.1889 9.20312C13.544 9.83286 13.776 10.5526 13.8849 11.3622ZM19.3235 21.2202C18.6322 21.2202 18.0096 21.0971 17.4556 20.8509C16.9064 20.5999 16.4708 20.2306 16.1488 19.7429C15.8316 19.2552 15.6729 18.6539 15.6729 17.9389C15.6729 17.3234 15.7866 16.8144 16.0138 16.4119C16.2411 16.0095 16.5513 15.6875 16.9442 15.446C17.3372 15.2045 17.7799 15.0223 18.2724 14.8991C18.7695 14.7713 19.2833 14.679 19.8136 14.6222C20.4528 14.5559 20.9712 14.4967 21.369 14.4446C21.7667 14.3878 22.0555 14.3026 22.2354 14.1889C22.4201 14.0705 22.5124 13.8883 22.5124 13.642V13.5994C22.5124 13.0644 22.3538 12.6501 22.0366 12.3565C21.7193 12.063 21.2624 11.9162 20.6658 11.9162C20.0361 11.9162 19.5366 12.0535 19.1673 12.3281C18.8027 12.6027 18.5565 12.9271 18.4286 13.3011L16.0281 12.9602C16.2174 12.2973 16.5299 11.7434 16.9656 11.2983C17.4012 10.8485 17.9338 10.5123 18.5636 10.2898C19.1933 10.0625 19.8893 9.94886 20.6516 9.94886C21.1772 9.94886 21.7004 10.0104 22.2212 10.1335C22.7421 10.2566 23.2179 10.4602 23.6488 10.7443C24.0797 11.0237 24.4253 11.4048 24.6857 11.8878C24.9509 12.3707 25.0835 12.9744 25.0835 13.6989V21H22.6119V19.5014H22.5266C22.3704 19.8045 22.1502 20.0885 21.8661 20.3537C21.5868 20.6141 21.234 20.8248 20.8079 20.9858C20.3865 21.142 19.8917 21.2202 19.3235 21.2202ZM19.9911 19.331C20.5072 19.331 20.9547 19.2292 21.3335 19.0256C21.7122 18.8172 22.0034 18.5426 22.207 18.2017C22.4154 17.8608 22.5195 17.4891 22.5195 17.0866V15.8011C22.439 15.8674 22.3017 15.929 22.1076 15.9858C21.9182 16.0426 21.7051 16.0923 21.4684 16.1349C21.2317 16.1776 20.9973 16.2154 20.7653 16.2486C20.5333 16.2817 20.332 16.3101 20.1616 16.3338C19.7781 16.3859 19.4348 16.4711 19.1317 16.5895C18.8287 16.7079 18.5896 16.8736 18.4144 17.0866C18.2392 17.295 18.1516 17.5649 18.1516 17.8963C18.1516 18.3698 18.3245 18.7273 18.6701 18.9688C19.0157 19.2102 19.4561 19.331 19.9911 19.331ZM27.6687 25.0909V10.0909H30.1971V11.8949H30.3462C30.4788 11.6297 30.6658 11.348 30.9073 11.0497C31.1488 10.7467 31.4755 10.4886 31.8874 10.2756C32.2994 10.0578 32.8249 9.94886 33.4641 9.94886C34.3069 9.94886 35.0669 10.1643 35.744 10.5952C36.4258 11.0213 36.9656 11.6534 37.3633 12.4915C37.7657 13.3248 37.967 14.3475 37.967 15.5597C37.967 16.7576 37.7705 17.7756 37.3775 18.6136C36.9845 19.4517 36.4495 20.0909 35.7724 20.5312C35.0953 20.9716 34.3282 21.1918 33.4712 21.1918C32.8462 21.1918 32.3278 21.0876 31.9158 20.8793C31.5039 20.6709 31.1725 20.42 30.9215 20.1264C30.6753 19.8281 30.4835 19.5464 30.3462 19.2812H30.2397V25.0909H27.6687ZM30.19 15.5455C30.19 16.2509 30.2894 16.8688 30.4883 17.3991C30.6919 17.9295 30.9831 18.3437 31.3619 18.642C31.7454 18.9356 32.2094 19.0824 32.7539 19.0824C33.3221 19.0824 33.7979 18.9309 34.1815 18.6278C34.565 18.3201 34.8538 17.901 35.0479 17.3707C35.2468 16.8357 35.3462 16.2273 35.3462 15.5455C35.3462 14.8684 35.2492 14.267 35.055 13.7415C34.8609 13.2159 34.5721 12.804 34.1886 12.5057C33.805 12.2074 33.3268 12.0582 32.7539 12.0582C32.2047 12.0582 31.7383 12.2027 31.3548 12.4915C30.9712 12.7803 30.68 13.1851 30.4812 13.706C30.2871 14.2268 30.19 14.84 30.19 15.5455ZM48.7908 12.9744L46.4471 13.2301C46.3808 12.9934 46.2648 12.7708 46.0991 12.5625C45.9381 12.3542 45.7203 12.1861 45.4457 12.0582C45.171 11.9304 44.8349 11.8665 44.4371 11.8665C43.9021 11.8665 43.4523 11.9825 43.0877 12.2145C42.7279 12.4465 42.5503 12.7472 42.555 13.1165C42.5503 13.4337 42.6663 13.6918 42.9031 13.8906C43.1445 14.0895 43.5423 14.2528 44.0962 14.3807L45.957 14.7784C46.9892 15.0009 47.7563 15.3537 48.2582 15.8366C48.7648 16.3196 49.0205 16.9517 49.0252 17.733C49.0205 18.4195 48.8192 19.0256 48.4215 19.5511C48.0285 20.072 47.4817 20.4792 46.7809 20.7727C46.0801 21.0663 45.2752 21.2131 44.3661 21.2131C43.0309 21.2131 41.9561 20.9337 41.1417 20.375C40.3273 19.8116 39.842 19.0279 39.6857 18.0241L42.1928 17.7827C42.3065 18.2751 42.5479 18.6468 42.9173 18.8977C43.2866 19.1487 43.7672 19.2741 44.359 19.2741C44.9698 19.2741 45.4599 19.1487 45.8292 18.8977C46.2032 18.6468 46.3903 18.3366 46.3903 17.9673C46.3903 17.6548 46.2695 17.3968 46.0281 17.1932C45.7913 16.9896 45.422 16.8333 44.9201 16.7244L43.0593 16.3338C42.0129 16.116 41.2388 15.7491 40.7369 15.233C40.235 14.7121 39.9864 14.054 39.9911 13.2585C39.9864 12.5862 40.1687 12.0038 40.538 11.5114C40.9121 11.0142 41.4305 10.6307 42.0934 10.3608C42.761 10.0862 43.5304 9.94886 44.4016 9.94886C45.68 9.94886 46.6862 10.2211 47.4201 10.7656C48.1587 11.3101 48.6156 12.0464 48.7908 12.9744ZM58.0984 16.4119V10.0909H60.6694V21H58.1765V19.0611H58.0629C57.8166 19.6719 57.4118 20.1714 56.8484 20.5597C56.2897 20.9479 55.6007 21.142 54.7816 21.142C54.0666 21.142 53.4345 20.9834 52.8853 20.6662C52.3408 20.3442 51.9147 19.8778 51.6069 19.267C51.2991 18.6515 51.1452 17.9081 51.1452 17.0369V10.0909H53.7163V16.6392C53.7163 17.3305 53.9057 17.8797 54.2844 18.2869C54.6632 18.6941 55.1604 18.8977 55.7759 18.8977C56.1547 18.8977 56.5217 18.8054 56.8768 18.6207C57.2319 18.4361 57.5231 18.1615 57.7504 17.7969C57.9824 17.4276 58.0984 16.9659 58.0984 16.4119ZM65.8842 6.45455V21H63.3132V6.45455H65.8842ZM73.3576 21.2131C72.2638 21.2131 71.3192 20.9858 70.5238 20.5312C69.7331 20.072 69.1246 19.4233 68.6985 18.5852C68.2724 17.7424 68.0593 16.7505 68.0593 15.6094C68.0593 14.4872 68.2724 13.5024 68.6985 12.6548C69.1294 11.8026 69.7307 11.1397 70.5025 10.6662C71.2743 10.188 72.181 9.94886 73.2227 9.94886C73.895 9.94886 74.5295 10.0578 75.1261 10.2756C75.7274 10.4886 76.2577 10.8201 76.717 11.2699C77.181 11.7197 77.5456 12.2926 77.8107 12.9886C78.0759 13.6799 78.2085 14.5038 78.2085 15.4602V16.2486H69.2667V14.5156H75.744C75.7392 14.0232 75.6327 13.5852 75.4244 13.2017C75.216 12.8134 74.9248 12.508 74.5508 12.2855C74.1815 12.063 73.7506 11.9517 73.2582 11.9517C72.7326 11.9517 72.271 12.0795 71.8732 12.3352C71.4755 12.5862 71.1654 12.9176 70.9428 13.3295C70.725 13.7367 70.6138 14.1842 70.609 14.6719V16.1847C70.609 16.8191 70.725 17.3636 70.957 17.8182C71.189 18.268 71.5134 18.6136 71.93 18.8551C72.3467 19.0919 72.8344 19.2102 73.3931 19.2102C73.7672 19.2102 74.1057 19.1581 74.4087 19.054C74.7118 18.9451 74.9746 18.7865 75.1971 18.5781C75.4196 18.3698 75.5877 18.1117 75.7013 17.804L78.1019 18.0739C77.9504 18.7083 77.6616 19.2623 77.2354 19.7358C76.814 20.2045 76.2743 20.5691 75.6161 20.8295C74.958 21.0852 74.2051 21.2131 73.3576 21.2131ZM89.0057 12.9744L86.6619 13.2301C86.5956 12.9934 86.4796 12.7708 86.3139 12.5625C86.1529 12.3542 85.9351 12.1861 85.6605 12.0582C85.3859 11.9304 85.0497 11.8665 84.652 11.8665C84.117 11.8665 83.6671 11.9825 83.3026 12.2145C82.9427 12.4465 82.7652 12.7472 82.7699 13.1165C82.7652 13.4337 82.8812 13.6918 83.1179 13.8906C83.3594 14.0895 83.7571 14.2528 84.3111 14.3807L86.1719 14.7784C87.2041 15.0009 87.9711 15.3537 88.473 15.8366C88.9796 16.3196 89.2353 16.9517 89.2401 17.733C89.2353 18.4195 89.0341 19.0256 88.6364 19.5511C88.2434 20.072 87.6965 20.4792 86.9957 20.7727C86.295 21.0663 85.4901 21.2131 84.581 21.2131C83.2457 21.2131 82.1709 20.9337 81.3565 20.375C80.5421 19.8116 80.0568 19.0279 79.9006 18.0241L82.4077 17.7827C82.5213 18.2751 82.7628 18.6468 83.1321 18.8977C83.5014 19.1487 83.982 19.2741 84.5739 19.2741C85.1847 19.2741 85.6747 19.1487 86.044 18.8977C86.4181 18.6468 86.6051 18.3366 86.6051 17.9673C86.6051 17.6548 86.4844 17.3968 86.2429 17.1932C86.0062 16.9896 85.6368 16.8333 85.1349 16.7244L83.2741 16.3338C82.2277 16.116 81.4536 15.7491 80.9517 15.233C80.4498 14.7121 80.2012 14.054 80.206 13.2585C80.2012 12.5862 80.3835 12.0038 80.7528 11.5114C81.1269 11.0142 81.6454 10.6307 82.3082 10.3608C82.9759 10.0862 83.7453 9.94886 84.6165 9.94886C85.8949 9.94886 86.901 10.2211 87.6349 10.7656C88.3736 11.3101 88.8305 12.0464 89.0057 12.9744Z" fill="black"/>
<path d="M103.501 0C97.6996 0 93.0008 3.99252 93.0008 8.9217V13.0869C93 14 93 14 93 14H113.997C114 14 113.997 13.5904 113.997 13.0869V8.9217C113.997 3.99252 109.299 0 103.501 0Z" fill="black"/>
<path d="M103.498 28C109.299 28 113.998 24.0075 113.998 19.0783V14.9131C113.999 14 113.999 14 113.999 14L93.0012 14C92.9985 14 93.0012 14.4096 93.0012 14.9131V19.0783C93.0012 24.0075 97.7 28 103.498 28Z" fill="black"/>
<path d="M98.6399 19H96.3331L99.848 8.81818H102.622L106.132 19H103.825L101.275 11.1449H101.195L98.6399 19ZM98.4957 14.9979H103.945V16.6783H98.4957V14.9979ZM109.51 8.81818V19H107.358V8.81818H109.51Z" fill="white"/>
</svg>
