<svg width="148" height="32" viewBox="0 0 148 32" fill="none" xmlns="http://www.w3.org/2000/svg">
<path d="M0 22.2345C0 27.6266 4.4751 31.9998 10 31.9998C15.5217 31.9998 20 27.6298 20 22.2345V17.6754C20 17.1244 19.5407 16.6758 18.9764 16.6758H1.02362C0.45932 16.6758 0 17.1244 0 17.6754V22.2345Z" fill="white"/>
<path d="M10 0C4.4751 0 0 4.37005 0 9.76532V14.3244C0 14.8755 0.45932 15.324 1.02362 15.324H18.9731C19.5374 15.324 19.9967 14.8755 19.9967 14.3244V9.76532C19.9967 4.37005 15.5217 0 10 0Z" fill="white"/>
<path d="M10.9771 14.2602C11.1411 14.0519 11.4036 13.8148 11.7153 13.5521C12.7881 12.6519 14.4417 11.4536 14.7468 10.0247C14.7468 10.0151 14.7468 10.0055 14.7501 9.99266C14.7796 9.83567 14.7993 9.67548 14.8124 9.51529C14.8222 9.39034 14.8321 9.26539 14.8321 9.14044C14.8321 6.53251 12.6667 4.41797 9.99612 4.41797C7.32552 4.41797 5.16022 6.53251 5.16022 9.14044C5.16022 9.26859 5.16672 9.39034 5.17982 9.51529C5.19302 9.67548 5.21262 9.83567 5.24222 9.99266C5.24222 10.0023 5.24222 10.0119 5.24552 10.0247C5.55062 11.4568 7.20412 12.6519 8.27702 13.5521C8.58542 13.8116 8.85112 14.0487 9.01512 14.2602C9.29732 14.619 9.43842 14.9939 9.50402 15.3239H10.4882C10.5539 14.9971 10.6949 14.619 10.9771 14.2602Z" fill="#181D27"/>
<path d="M10.0008 13.9557C9.93842 13.8596 9.87282 13.7635 9.80062 13.6738C9.57102 13.379 9.24292 13.0907 8.92472 12.8216C8.79342 12.7126 8.65242 12.5973 8.50802 12.4756C7.93062 12.0014 7.26132 11.4535 6.79212 10.8832C6.49682 10.5244 6.66422 9.97972 7.12022 9.85798C8.05522 9.61128 9.01652 9.48633 10.0008 9.48633C10.985 9.48633 11.9496 9.61128 12.8814 9.85798C13.3374 9.97972 13.508 10.5244 13.2094 10.8832C12.7403 11.4503 12.071 11.9982 11.4936 12.4724C11.3492 12.5909 11.2081 12.7062 11.0769 12.8184C10.7587 13.0875 10.4306 13.3758 10.2009 13.6706C10.1287 13.7603 10.0631 13.8564 10.0008 13.9525V13.9557Z" fill="white"/>
<path d="M13.8845 25.6626C14.4685 24.8809 14.836 23.9005 14.836 22.8592C14.836 22.5677 14.8065 22.2826 14.754 22.007C14.754 21.9974 14.754 21.9878 14.7507 21.975C14.4456 20.5429 12.792 19.3478 11.7192 18.4476C11.4108 18.188 11.145 17.951 10.981 17.7395C10.6988 17.3807 10.5578 17.0058 10.4921 16.6758H9.50792C9.44232 17.0026 9.30122 17.3807 9.01902 17.7395C8.85502 17.9478 8.59252 18.1848 8.28092 18.4476C7.20802 19.3478 5.55452 20.5461 5.24942 21.975C5.24942 21.9846 5.24942 21.9942 5.24612 22.007C5.19362 22.2826 5.16412 22.5677 5.16412 22.8592C5.16412 23.9005 5.51182 24.8584 6.09582 25.637L6.10572 25.653C6.98492 26.8288 8.39242 27.5817 10 27.5817C11.6076 27.5817 13.025 26.8128 13.9042 25.637L13.8845 25.6626Z" fill="#181D27"/>
<path d="M10.0134 26.6209C9.32118 26.6209 8.65518 26.4094 8.04488 26.0089C7.86778 25.8936 7.87758 25.4899 8.06458 25.4002C8.47138 25.2048 8.96678 24.9164 9.44258 24.4999C9.79358 24.1955 10.2201 24.25 10.5679 24.5736C10.9813 24.9581 11.4111 25.2336 11.8376 25.4226C12.0344 25.5091 12.0344 25.9384 11.8376 26.0378C11.2995 26.3101 10.5318 26.6177 10.0134 26.6177V26.6209Z" fill="white"/>
<path d="M11.9844 25.1953C12.0205 25.2017 12.0598 25.2081 12.0959 25.2145C12.0598 25.2081 12.0205 25.1985 11.9844 25.1953Z" fill="white"/>
<path d="M42.098 13.5469H38.9872C38.9304 13.1444 38.8144 12.7869 38.6392 12.4744C38.464 12.1572 38.2391 11.8873 37.9645 11.6648C37.6899 11.4422 37.3726 11.2718 37.0128 11.1534C36.6577 11.035 36.2718 10.9759 35.8551 10.9759C35.1023 10.9759 34.4465 11.1629 33.8878 11.5369C33.3291 11.9062 32.8958 12.446 32.5881 13.1562C32.2803 13.8617 32.1264 14.7187 32.1264 15.7273C32.1264 16.7642 32.2803 17.6354 32.5881 18.3409C32.9006 19.0464 33.3362 19.5791 33.8949 19.9389C34.4536 20.2988 35.0999 20.4787 35.8338 20.4787C36.2457 20.4787 36.6269 20.4242 36.9773 20.3153C37.3324 20.2064 37.6473 20.0478 37.9219 19.8395C38.1965 19.6264 38.4238 19.3684 38.6037 19.0653C38.7884 18.7623 38.9162 18.4167 38.9872 18.0284L42.098 18.0426C42.0175 18.7102 41.8163 19.3542 41.4943 19.9744C41.1771 20.59 40.7486 21.1416 40.2088 21.6293C39.6738 22.1122 39.0346 22.4957 38.2912 22.7798C37.5526 23.0592 36.7169 23.1989 35.7841 23.1989C34.4867 23.1989 33.3267 22.9053 32.304 22.3182C31.286 21.7311 30.4811 20.8812 29.8892 19.7685C29.3021 18.6558 29.0085 17.3087 29.0085 15.7273C29.0085 14.1411 29.3068 12.7917 29.9034 11.679C30.5 10.5663 31.3097 9.71875 32.3324 9.13636C33.3551 8.54924 34.5057 8.25568 35.7841 8.25568C36.6269 8.25568 37.4081 8.37405 38.1278 8.6108C38.8523 8.84754 39.4938 9.19318 40.0526 9.64773C40.6113 10.0975 41.0658 10.6491 41.4162 11.3026C41.7713 11.956 41.9986 12.7041 42.098 13.5469ZM47.3572 23.206C46.6612 23.206 46.041 23.0852 45.4964 22.8438C44.9519 22.5975 44.5211 22.2353 44.2038 21.7571C43.8913 21.2741 43.7351 20.6728 43.7351 19.9531C43.7351 19.3471 43.8464 18.8381 44.0689 18.4261C44.2914 18.0142 44.5945 17.6828 44.978 17.4318C45.3615 17.1809 45.7971 16.9915 46.2848 16.8636C46.7772 16.7358 47.2933 16.6458 47.8331 16.5938C48.4676 16.5275 48.9789 16.4659 49.3672 16.4091C49.7554 16.3475 50.0372 16.2576 50.2124 16.1392C50.3875 16.0208 50.4751 15.8456 50.4751 15.6136V15.571C50.4751 15.1212 50.3331 14.7732 50.049 14.527C49.7696 14.2808 49.3719 14.1577 48.8558 14.1577C48.3113 14.1577 47.8781 14.2784 47.5561 14.5199C47.2341 14.7566 47.0211 15.0549 46.9169 15.4148L44.1186 15.1875C44.2607 14.5246 44.54 13.9517 44.9567 13.4688C45.3733 12.9811 45.9107 12.607 46.5689 12.3466C47.2318 12.0814 47.9988 11.9489 48.87 11.9489C49.4761 11.9489 50.0561 12.0199 50.6101 12.1619C51.1688 12.304 51.6636 12.5241 52.0945 12.8224C52.5301 13.1207 52.8733 13.5043 53.1243 13.973C53.3752 14.437 53.5007 14.9934 53.5007 15.642V23H50.6314V21.4872H50.5462C50.371 21.8281 50.1366 22.1288 49.843 22.3892C49.5495 22.6449 49.1967 22.8461 48.7848 22.9929C48.3729 23.1349 47.897 23.206 47.3572 23.206ZM48.2237 21.1179C48.6688 21.1179 49.0618 21.0303 49.4027 20.8551C49.7436 20.6752 50.0111 20.4337 50.2053 20.1307C50.3994 19.8277 50.4964 19.4844 50.4964 19.1009V17.9432C50.4018 18.0047 50.2715 18.0616 50.1058 18.1136C49.9448 18.161 49.7625 18.206 49.5589 18.2486C49.3554 18.2865 49.1518 18.322 48.9482 18.3551C48.7446 18.3835 48.5599 18.4096 48.3942 18.4332C48.0391 18.4853 47.7289 18.5682 47.4638 18.6818C47.1986 18.7955 46.9927 18.9493 46.8459 19.1435C46.6991 19.3329 46.6257 19.5696 46.6257 19.8537C46.6257 20.2656 46.7749 20.5805 47.0732 20.7983C47.3762 21.0114 47.7597 21.1179 48.2237 21.1179ZM55.848 27.0909V12.0909H58.831V13.9233H58.9659C59.0985 13.6297 59.2902 13.3314 59.5412 13.0284C59.7969 12.7206 60.1283 12.465 60.5355 12.2614C60.9474 12.053 61.4588 11.9489 62.0696 11.9489C62.8651 11.9489 63.599 12.1572 64.2713 12.5739C64.9437 12.9858 65.4811 13.6084 65.8835 14.4418C66.286 15.2704 66.4872 16.3097 66.4872 17.5597C66.4872 18.7765 66.2907 19.804 65.8977 20.642C65.5095 21.4754 64.9792 22.1075 64.3068 22.5384C63.6392 22.9645 62.8911 23.1776 62.0625 23.1776C61.4754 23.1776 60.9759 23.0805 60.5639 22.8864C60.1567 22.6922 59.8229 22.4484 59.5625 22.1548C59.3021 21.8565 59.1032 21.5559 58.9659 21.2528H58.8736V27.0909H55.848ZM58.8097 17.5455C58.8097 18.1941 58.8996 18.7599 59.0795 19.2429C59.2595 19.7259 59.5199 20.1023 59.8608 20.3722C60.2017 20.6373 60.616 20.7699 61.1037 20.7699C61.5961 20.7699 62.0128 20.6349 62.3537 20.3651C62.6946 20.0904 62.9527 19.7116 63.1278 19.2287C63.3078 18.741 63.3977 18.1799 63.3977 17.5455C63.3977 16.9157 63.3101 16.3617 63.1349 15.8835C62.9598 15.4053 62.7017 15.0312 62.3608 14.7614C62.0199 14.4915 61.6009 14.3565 61.1037 14.3565C60.6113 14.3565 60.1946 14.4867 59.8537 14.7472C59.5175 15.0076 59.2595 15.3769 59.0795 15.8551C58.8996 16.3333 58.8097 16.8968 58.8097 17.5455ZM77.581 15.2017L74.8111 15.3722C74.7637 15.1354 74.6619 14.9223 74.5057 14.733C74.3494 14.5388 74.1435 14.3849 73.8878 14.2713C73.6368 14.1529 73.3362 14.0938 72.9858 14.0938C72.517 14.0938 72.1217 14.1932 71.7997 14.392C71.4777 14.5862 71.3168 14.8466 71.3168 15.1733C71.3168 15.4337 71.4209 15.6539 71.6293 15.8338C71.8376 16.0137 72.1951 16.1581 72.7017 16.267L74.6761 16.6648C75.7367 16.8826 76.5275 17.233 77.0483 17.7159C77.5691 18.1989 77.8295 18.8333 77.8295 19.6193C77.8295 20.3343 77.6188 20.9616 77.1974 21.5014C76.7808 22.0412 76.2079 22.4626 75.4787 22.7656C74.7543 23.0639 73.9186 23.2131 72.9716 23.2131C71.5275 23.2131 70.3769 22.9124 69.5199 22.3111C68.6676 21.705 68.1681 20.8812 68.0213 19.8395L70.9972 19.6832C71.0871 20.1236 71.3049 20.4598 71.6506 20.6918C71.9962 20.919 72.4389 21.0327 72.9787 21.0327C73.509 21.0327 73.9351 20.9309 74.2571 20.7273C74.5838 20.5189 74.7495 20.2514 74.7543 19.9247C74.7495 19.6501 74.6335 19.4252 74.4062 19.25C74.179 19.0701 73.8286 18.9328 73.3551 18.8381L71.4659 18.4616C70.4006 18.2486 69.6075 17.8793 69.0866 17.3537C68.5705 16.8281 68.3125 16.1581 68.3125 15.3438C68.3125 14.643 68.5019 14.0393 68.8807 13.5327C69.2642 13.026 69.8016 12.6354 70.4929 12.3608C71.1889 12.0862 72.0033 11.9489 72.9361 11.9489C74.3139 11.9489 75.3982 12.2401 76.1889 12.8224C76.9844 13.4048 77.4484 14.1979 77.581 15.2017ZM86.7305 18.3551V12.0909H89.756V23H86.8512V21.0185H86.7376C86.4914 21.6577 86.0818 22.1714 85.5089 22.5597C84.9407 22.9479 84.247 23.142 83.4279 23.142C82.6987 23.142 82.0572 22.9763 81.5032 22.6449C80.9492 22.3134 80.516 21.8423 80.2035 21.2315C79.8957 20.6207 79.7395 19.8892 79.7347 19.0369V12.0909H82.7603V18.4972C82.765 19.1411 82.9379 19.6501 83.2788 20.0241C83.6197 20.3982 84.0766 20.5852 84.6495 20.5852C85.0141 20.5852 85.355 20.5024 85.6722 20.3366C85.9895 20.1662 86.2451 19.9152 86.4393 19.5838C86.6381 19.2524 86.7352 18.8428 86.7305 18.3551ZM95.2017 8.45455V23H92.1761V8.45455H95.2017ZM102.597 23.2131C101.475 23.2131 100.509 22.9858 99.6992 22.5312C98.8943 22.072 98.274 21.4233 97.8384 20.5852C97.4028 19.7424 97.185 18.7457 97.185 17.5952C97.185 16.473 97.4028 15.4882 97.8384 14.6406C98.274 13.7931 98.8872 13.1326 99.6779 12.6591C100.473 12.1856 101.406 11.9489 102.476 11.9489C103.196 11.9489 103.866 12.0649 104.486 12.2969C105.111 12.5241 105.656 12.8674 106.12 13.3267C106.588 13.786 106.953 14.3636 107.213 15.0597C107.474 15.7509 107.604 16.5606 107.604 17.4886V18.3196H98.3924V16.4446H104.756C104.756 16.009 104.661 15.6231 104.472 15.2869C104.283 14.9508 104.02 14.688 103.684 14.4986C103.352 14.3045 102.966 14.2074 102.526 14.2074C102.067 14.2074 101.659 14.3139 101.304 14.527C100.954 14.7353 100.679 15.017 100.48 15.3722C100.282 15.7225 100.18 16.1132 100.175 16.544V18.3267C100.175 18.8665 100.275 19.3329 100.473 19.7259C100.677 20.1188 100.963 20.4219 101.333 20.6349C101.702 20.848 102.14 20.9545 102.647 20.9545C102.983 20.9545 103.291 20.9072 103.57 20.8125C103.849 20.7178 104.088 20.5758 104.287 20.3864C104.486 20.197 104.638 19.965 104.742 19.6903L107.54 19.875C107.398 20.5473 107.107 21.1345 106.667 21.6364C106.231 22.1335 105.667 22.5218 104.976 22.8011C104.29 23.0758 103.497 23.2131 102.597 23.2131ZM118.655 15.2017L115.885 15.3722C115.838 15.1354 115.736 14.9223 115.58 14.733C115.424 14.5388 115.218 14.3849 114.962 14.2713C114.711 14.1529 114.41 14.0938 114.06 14.0938C113.591 14.0938 113.196 14.1932 112.874 14.392C112.552 14.5862 112.391 14.8466 112.391 15.1733C112.391 15.4337 112.495 15.6539 112.703 15.8338C112.912 16.0137 113.269 16.1581 113.776 16.267L115.75 16.6648C116.811 16.8826 117.602 17.233 118.123 17.7159C118.643 18.1989 118.904 18.8333 118.904 19.6193C118.904 20.3343 118.693 20.9616 118.272 21.5014C117.855 22.0412 117.282 22.4626 116.553 22.7656C115.828 23.0639 114.993 23.2131 114.046 23.2131C112.602 23.2131 111.451 22.9124 110.594 22.3111C109.742 21.705 109.242 20.8812 109.096 19.8395L112.071 19.6832C112.161 20.1236 112.379 20.4598 112.725 20.6918C113.07 20.919 113.513 21.0327 114.053 21.0327C114.583 21.0327 115.009 20.9309 115.331 20.7273C115.658 20.5189 115.824 20.2514 115.828 19.9247C115.824 19.6501 115.708 19.4252 115.48 19.25C115.253 19.0701 114.903 18.9328 114.429 18.8381L112.54 18.4616C111.475 18.2486 110.682 17.8793 110.161 17.3537C109.645 16.8281 109.387 16.1581 109.387 15.3438C109.387 14.643 109.576 14.0393 109.955 13.5327C110.338 13.026 110.876 12.6354 111.567 12.3608C112.263 12.0862 113.078 11.9489 114.01 11.9489C115.388 11.9489 116.472 12.2401 117.263 12.8224C118.059 13.4048 118.523 14.1979 118.655 15.2017ZM128.002 23H124.706L129.728 8.45455H133.691L138.705 23H135.409L131.766 11.7784H131.652L128.002 23ZM127.796 17.2827H135.58V19.6832H127.796V17.2827ZM143.531 8.45455V23H140.456V8.45455H143.531Z" fill="white"/>
</svg>
