<svg width="115" height="28" viewBox="0 0 115 28" fill="none" xmlns="http://www.w3.org/2000/svg">
<path d="M14.098 11.5469H10.9872C10.9304 11.1444 10.8144 10.7869 10.6392 10.4744C10.464 10.1572 10.2391 9.88731 9.96449 9.66477C9.68987 9.44223 9.37263 9.27178 9.01278 9.15341C8.65767 9.03504 8.27178 8.97585 7.85511 8.97585C7.10227 8.97585 6.4465 9.16288 5.88778 9.53693C5.32907 9.90625 4.89583 10.446 4.58807 11.1562C4.2803 11.8617 4.12642 12.7187 4.12642 13.7273C4.12642 14.7642 4.2803 15.6354 4.58807 16.3409C4.90057 17.0464 5.33617 17.5791 5.89489 17.9389C6.4536 18.2988 7.09991 18.4787 7.83381 18.4787C8.24574 18.4787 8.62689 18.4242 8.97727 18.3153C9.33239 18.2064 9.64725 18.0478 9.92188 17.8395C10.1965 17.6264 10.4238 17.3684 10.6037 17.0653C10.7884 16.7623 10.9162 16.4167 10.9872 16.0284L14.098 16.0426C14.0175 16.7102 13.8163 17.3542 13.4943 17.9744C13.1771 18.59 12.7486 19.1416 12.2088 19.6293C11.6738 20.1122 11.0346 20.4957 10.2912 20.7798C9.55256 21.0592 8.71686 21.1989 7.78409 21.1989C6.48674 21.1989 5.3267 20.9053 4.30398 20.3182C3.28598 19.7311 2.48106 18.8812 1.8892 17.7685C1.30208 16.6558 1.00852 15.3087 1.00852 13.7273C1.00852 12.1411 1.30682 10.7917 1.90341 9.67898C2.5 8.56629 3.30966 7.71875 4.33239 7.13636C5.35511 6.54924 6.50568 6.25568 7.78409 6.25568C8.62689 6.25568 9.40814 6.37405 10.1278 6.6108C10.8523 6.84754 11.4938 7.19318 12.0526 7.64773C12.6113 8.09754 13.0658 8.64915 13.4162 9.30256C13.7713 9.95597 13.9986 10.7041 14.098 11.5469ZM19.3572 21.206C18.6612 21.206 18.041 21.0852 17.4964 20.8438C16.9519 20.5975 16.5211 20.2353 16.2038 19.7571C15.8913 19.2741 15.7351 18.6728 15.7351 17.9531C15.7351 17.3471 15.8464 16.8381 16.0689 16.4261C16.2914 16.0142 16.5945 15.6828 16.978 15.4318C17.3615 15.1809 17.7971 14.9915 18.2848 14.8636C18.7772 14.7358 19.2933 14.6458 19.8331 14.5938C20.4676 14.5275 20.9789 14.4659 21.3672 14.4091C21.7554 14.3475 22.0372 14.2576 22.2124 14.1392C22.3875 14.0208 22.4751 13.8456 22.4751 13.6136V13.571C22.4751 13.1212 22.3331 12.7732 22.049 12.527C21.7696 12.2808 21.3719 12.1577 20.8558 12.1577C20.3113 12.1577 19.8781 12.2784 19.5561 12.5199C19.2341 12.7566 19.0211 13.0549 18.9169 13.4148L16.1186 13.1875C16.2607 12.5246 16.54 11.9517 16.9567 11.4688C17.3733 10.9811 17.9107 10.607 18.5689 10.3466C19.2318 10.0814 19.9988 9.94886 20.87 9.94886C21.4761 9.94886 22.0561 10.0199 22.6101 10.1619C23.1688 10.304 23.6636 10.5241 24.0945 10.8224C24.5301 11.1207 24.8733 11.5043 25.1243 11.973C25.3752 12.437 25.5007 12.9934 25.5007 13.642V21H22.6314V19.4872H22.5462C22.371 19.8281 22.1366 20.1288 21.843 20.3892C21.5495 20.6449 21.1967 20.8461 20.7848 20.9929C20.3729 21.1349 19.897 21.206 19.3572 21.206ZM20.2237 19.1179C20.6688 19.1179 21.0618 19.0303 21.4027 18.8551C21.7436 18.6752 22.0111 18.4337 22.2053 18.1307C22.3994 17.8277 22.4964 17.4844 22.4964 17.1009V15.9432C22.4018 16.0047 22.2715 16.0616 22.1058 16.1136C21.9448 16.161 21.7625 16.206 21.5589 16.2486C21.3554 16.2865 21.1518 16.322 20.9482 16.3551C20.7446 16.3835 20.5599 16.4096 20.3942 16.4332C20.0391 16.4853 19.7289 16.5682 19.4638 16.6818C19.1986 16.7955 18.9927 16.9493 18.8459 17.1435C18.6991 17.3329 18.6257 17.5696 18.6257 17.8537C18.6257 18.2656 18.7749 18.5805 19.0732 18.7983C19.3762 19.0114 19.7597 19.1179 20.2237 19.1179ZM27.848 25.0909V10.0909H30.831V11.9233H30.9659C31.0985 11.6297 31.2902 11.3314 31.5412 11.0284C31.7969 10.7206 32.1283 10.465 32.5355 10.2614C32.9474 10.053 33.4588 9.94886 34.0696 9.94886C34.8651 9.94886 35.599 10.1572 36.2713 10.5739C36.9437 10.9858 37.4811 11.6084 37.8835 12.4418C38.286 13.2704 38.4872 14.3097 38.4872 15.5597C38.4872 16.7765 38.2907 17.804 37.8977 18.642C37.5095 19.4754 36.9792 20.1075 36.3068 20.5384C35.6392 20.9645 34.8911 21.1776 34.0625 21.1776C33.4754 21.1776 32.9759 21.0805 32.5639 20.8864C32.1567 20.6922 31.8229 20.4484 31.5625 20.1548C31.3021 19.8565 31.1032 19.5559 30.9659 19.2528H30.8736V25.0909H27.848ZM30.8097 15.5455C30.8097 16.1941 30.8996 16.7599 31.0795 17.2429C31.2595 17.7259 31.5199 18.1023 31.8608 18.3722C32.2017 18.6373 32.616 18.7699 33.1037 18.7699C33.5961 18.7699 34.0128 18.6349 34.3537 18.3651C34.6946 18.0904 34.9527 17.7116 35.1278 17.2287C35.3078 16.741 35.3977 16.1799 35.3977 15.5455C35.3977 14.9157 35.3101 14.3617 35.1349 13.8835C34.9598 13.4053 34.7017 13.0312 34.3608 12.7614C34.0199 12.4915 33.6009 12.3565 33.1037 12.3565C32.6113 12.3565 32.1946 12.4867 31.8537 12.7472C31.5175 13.0076 31.2595 13.3769 31.0795 13.8551C30.8996 14.3333 30.8097 14.8968 30.8097 15.5455ZM49.581 13.2017L46.8111 13.3722C46.7637 13.1354 46.6619 12.9223 46.5057 12.733C46.3494 12.5388 46.1435 12.3849 45.8878 12.2713C45.6368 12.1529 45.3362 12.0938 44.9858 12.0938C44.517 12.0938 44.1217 12.1932 43.7997 12.392C43.4777 12.5862 43.3168 12.8466 43.3168 13.1733C43.3168 13.4337 43.4209 13.6539 43.6293 13.8338C43.8376 14.0137 44.1951 14.1581 44.7017 14.267L46.6761 14.6648C47.7367 14.8826 48.5275 15.233 49.0483 15.7159C49.5691 16.1989 49.8295 16.8333 49.8295 17.6193C49.8295 18.3343 49.6188 18.9616 49.1974 19.5014C48.7808 20.0412 48.2079 20.4626 47.4787 20.7656C46.7543 21.0639 45.9186 21.2131 44.9716 21.2131C43.5275 21.2131 42.3769 20.9124 41.5199 20.3111C40.6676 19.705 40.1681 18.8812 40.0213 17.8395L42.9972 17.6832C43.0871 18.1236 43.3049 18.4598 43.6506 18.6918C43.9962 18.919 44.4389 19.0327 44.9787 19.0327C45.509 19.0327 45.9351 18.9309 46.2571 18.7273C46.5838 18.5189 46.7495 18.2514 46.7543 17.9247C46.7495 17.6501 46.6335 17.4252 46.4062 17.25C46.179 17.0701 45.8286 16.9328 45.3551 16.8381L43.4659 16.4616C42.4006 16.2486 41.6075 15.8793 41.0866 15.3537C40.5705 14.8281 40.3125 14.1581 40.3125 13.3438C40.3125 12.643 40.5019 12.0393 40.8807 11.5327C41.2642 11.026 41.8016 10.6354 42.4929 10.3608C43.1889 10.0862 44.0033 9.94886 44.9361 9.94886C46.3139 9.94886 47.3982 10.2401 48.1889 10.8224C48.9844 11.4048 49.4484 12.1979 49.581 13.2017ZM58.7305 16.3551V10.0909H61.756V21H58.8512V19.0185H58.7376C58.4914 19.6577 58.0818 20.1714 57.5089 20.5597C56.9407 20.9479 56.247 21.142 55.4279 21.142C54.6987 21.142 54.0572 20.9763 53.5032 20.6449C52.9492 20.3134 52.516 19.8423 52.2035 19.2315C51.8957 18.6207 51.7395 17.8892 51.7347 17.0369V10.0909H54.7603V16.4972C54.765 17.1411 54.9379 17.6501 55.2788 18.0241C55.6197 18.3982 56.0766 18.5852 56.6495 18.5852C57.0141 18.5852 57.355 18.5024 57.6722 18.3366C57.9895 18.1662 58.2451 17.9152 58.4393 17.5838C58.6381 17.2524 58.7352 16.8428 58.7305 16.3551ZM67.2017 6.45455V21H64.1761V6.45455H67.2017ZM74.5969 21.2131C73.4748 21.2131 72.5089 20.9858 71.6992 20.5312C70.8943 20.072 70.274 19.4233 69.8384 18.5852C69.4028 17.7424 69.185 16.7457 69.185 15.5952C69.185 14.473 69.4028 13.4882 69.8384 12.6406C70.274 11.7931 70.8872 11.1326 71.6779 10.6591C72.4734 10.1856 73.4061 9.94886 74.4762 9.94886C75.1959 9.94886 75.8659 10.0649 76.4862 10.2969C77.1112 10.5241 77.6557 10.8674 78.1197 11.3267C78.5884 11.786 78.953 12.3636 79.2134 13.0597C79.4738 13.7509 79.604 14.5606 79.604 15.4886V16.3196H70.3924V14.4446H76.756C76.756 14.009 76.6613 13.6231 76.4719 13.2869C76.2826 12.9508 76.0198 12.688 75.6836 12.4986C75.3522 12.3045 74.9663 12.2074 74.5259 12.2074C74.0666 12.2074 73.6594 12.3139 73.3043 12.527C72.954 12.7353 72.6793 13.017 72.4805 13.3722C72.2816 13.7225 72.1798 14.1132 72.1751 14.544V16.3267C72.1751 16.8665 72.2745 17.3329 72.4734 17.7259C72.677 18.1188 72.9634 18.4219 73.3327 18.6349C73.7021 18.848 74.14 18.9545 74.6467 18.9545C74.9828 18.9545 75.2906 18.9072 75.57 18.8125C75.8493 18.7178 76.0884 18.5758 76.2873 18.3864C76.4862 18.197 76.6377 17.965 76.7418 17.6903L79.5401 17.875C79.3981 18.5473 79.1069 19.1345 78.6665 19.6364C78.2309 20.1335 77.6675 20.5218 76.9762 20.8011C76.2897 21.0758 75.4966 21.2131 74.5969 21.2131ZM90.6552 13.2017L87.8853 13.3722C87.8379 13.1354 87.7362 12.9223 87.5799 12.733C87.4237 12.5388 87.2177 12.3849 86.962 12.2713C86.7111 12.1529 86.4104 12.0938 86.06 12.0938C85.5913 12.0938 85.1959 12.1932 84.8739 12.392C84.552 12.5862 84.391 12.8466 84.391 13.1733C84.391 13.4337 84.4951 13.6539 84.7035 13.8338C84.9118 14.0137 85.2693 14.1581 85.7759 14.267L87.7504 14.6648C88.811 14.8826 89.6017 15.233 90.1225 15.7159C90.6433 16.1989 90.9038 16.8333 90.9038 17.6193C90.9038 18.3343 90.6931 18.9616 90.2717 19.5014C89.855 20.0412 89.2821 20.4626 88.5529 20.7656C87.8285 21.0639 86.9928 21.2131 86.0458 21.2131C84.6017 21.2131 83.4511 20.9124 82.5941 20.3111C81.7418 19.705 81.2423 18.8812 81.0955 17.8395L84.0714 17.6832C84.1613 18.1236 84.3791 18.4598 84.7248 18.6918C85.0704 18.919 85.5131 19.0327 86.0529 19.0327C86.5832 19.0327 87.0094 18.9309 87.3313 18.7273C87.658 18.5189 87.8237 18.2514 87.8285 17.9247C87.8237 17.6501 87.7077 17.4252 87.4805 17.25C87.2532 17.0701 86.9028 16.9328 86.4293 16.8381L84.5401 16.4616C83.4748 16.2486 82.6817 15.8793 82.1609 15.3537C81.6448 14.8281 81.3867 14.1581 81.3867 13.3438C81.3867 12.643 81.5761 12.0393 81.9549 11.5327C82.3384 11.026 82.8758 10.6354 83.5671 10.3608C84.2631 10.0862 85.0775 9.94886 86.0103 9.94886C87.3881 9.94886 88.4724 10.2401 89.2631 10.8224C90.0586 11.4048 90.5226 12.1979 90.6552 13.2017Z" fill="black"/>
<path d="M104.501 0C98.6996 0 94.0008 3.99252 94.0008 8.9217V13.0869C94 14 94 14 94 14H114.997C115 14 114.997 13.5904 114.997 13.0869V8.9217C114.997 3.99252 110.299 0 104.501 0Z" fill="black"/>
<path d="M104.498 28C110.299 28 114.998 24.0075 114.998 19.0783V14.9131C114.999 14 114.999 14 114.999 14L94.0012 14C93.9985 14 94.0012 14.4096 94.0012 14.9131V19.0783C94.0012 24.0075 98.7 28 104.498 28Z" fill="black"/>
<path d="M99.6399 19H97.3331L100.848 8.81818H103.622L107.132 19H104.825L102.275 11.1449H102.195L99.6399 19ZM99.4957 14.9979H104.945V16.6783H99.4957V14.9979ZM110.51 8.81818V19H108.358V8.81818H110.51Z" fill="white"/>
</svg>
