<svg width="40" height="40" viewBox="0 0 40 40" fill="none" xmlns="http://www.w3.org/2000/svg">
<g clip-path="url(#clip0_1599_5018)">
<rect width="40" height="40" rx="8" fill="#181D27"/>
<path d="M9.57633 20.3533C7.1912 24.4844 8.68533 29.8145 12.9183 32.2584C17.1487 34.7009 22.5129 33.3337 24.8994 29.2001L26.9161 25.7071C27.1599 25.2849 27.0064 24.7381 26.574 24.4885L12.8194 16.5472C12.3871 16.2976 11.8367 16.4381 11.593 16.8603L9.57633 20.3533Z" fill="white"/>
<path d="M27.0756 7.74149C22.8427 5.29759 17.481 6.66622 15.0945 10.7998L13.0778 14.2928C12.834 14.715 12.9875 15.2618 13.4199 15.5114L27.172 23.4512C27.6043 23.7008 28.1547 23.5604 28.3984 23.1382L30.4151 19.6452C32.8016 15.5116 31.3061 10.1839 27.0756 7.74149Z" fill="white"/>
<path d="M21.5171 19.0993C21.7349 19.0123 22.0409 18.9467 22.3959 18.8833C23.6161 18.6681 25.413 18.4815 26.2788 17.5217C26.2831 17.5143 26.2873 17.507 26.2955 17.4986C26.3876 17.3914 26.4735 17.2774 26.5544 17.1604C26.6172 17.0691 26.68 16.9777 26.7353 16.882C27.8889 14.8839 27.1653 12.306 25.1192 11.1247C23.0731 9.94336 20.4787 10.6056 19.3251 12.6037C19.2684 12.7019 19.2196 12.798 19.1744 12.8996C19.1136 13.0281 19.0578 13.1596 19.011 13.2929C19.0067 13.3003 19.0025 13.3076 18.9993 13.3189C18.5996 14.5511 19.3379 16.1981 19.7616 17.3624C19.8831 17.6977 19.9818 17.9969 20.014 18.2314C20.0714 18.6311 20.0137 18.9807 19.918 19.2626L20.6721 19.698C20.8669 19.4766 21.1422 19.2494 21.5171 19.0993Z" fill="#181D27"/>
<path d="M20.903 18.4338C20.8978 18.3326 20.89 18.23 20.8744 18.1293C20.8288 17.8019 20.705 17.4358 20.5802 17.0889C20.5279 16.9474 20.4708 16.7966 20.4141 16.6395C20.1814 16.0208 19.911 15.305 19.8038 14.6605C19.7363 14.255 20.1054 13.9117 20.5086 14.0201C21.3341 14.2447 22.1259 14.5742 22.88 15.0096C23.6341 15.445 24.3178 15.9674 24.9226 16.5685C25.2181 16.8635 25.1079 17.3563 24.7204 17.4991C24.1102 17.7261 23.355 17.8498 22.7029 17.9576C22.5398 17.9846 22.3807 18.0106 22.2306 18.0384C21.8677 18.1039 21.4888 18.1797 21.1825 18.3039C21.0875 18.3407 20.9947 18.3853 20.9044 18.4314L20.903 18.4338Z" fill="white"/>
<path d="M18.6982 29.121C19.4914 28.7804 20.2066 28.1918 20.6672 27.394C20.7962 27.1707 20.8997 26.9391 20.9813 26.7048C20.9856 26.6975 20.9898 26.6901 20.993 26.6788C21.3927 25.4466 20.6545 23.7996 20.2307 22.6353C20.1092 22.3001 20.0105 22.0009 19.9784 21.7663C19.9209 21.3666 19.9786 21.017 20.0743 20.7351L19.3202 20.2997C19.1254 20.5211 18.8501 20.7483 18.4752 20.8985C18.2574 20.9854 17.9514 21.051 17.5964 21.1144C16.3762 21.3296 14.5793 21.5162 13.7135 22.476C13.7093 22.4834 13.705 22.4907 13.6968 22.4991C13.5347 22.687 13.386 22.8924 13.257 23.1158C12.7964 23.9135 12.6391 24.8013 12.7422 25.6561L12.7426 25.6727C12.8962 26.9625 13.6415 28.1619 14.8732 28.873C16.1049 29.5842 17.5309 29.622 18.7246 29.1101L18.6982 29.121Z" fill="#181D27"/>
<path d="M15.3088 28.1426C14.7784 27.8364 14.3617 27.3798 14.0713 26.8031C13.9866 26.6363 14.1727 26.3314 14.3556 26.3454C14.7538 26.3756 15.2609 26.3738 15.8096 26.2651C16.2132 26.1872 16.5159 26.4176 16.6392 26.8194C16.7858 27.2968 16.9932 27.698 17.2364 28.0315C17.349 28.1848 17.159 28.5138 16.9643 28.5028C16.4316 28.4734 15.7074 28.3695 15.3102 28.1402L15.3088 28.1426Z" fill="white"/>
<path d="M17.4531 27.923C17.4779 27.9439 17.5053 27.9662 17.5301 27.9871C17.5053 27.9662 17.4794 27.9414 17.4531 27.923Z" fill="white"/>
</g>
<defs>
<clipPath id="clip0_1599_5018">
<rect width="40" height="40" rx="8" fill="white"/>
</clipPath>
</defs>
</svg>
